<svg id="comment" xmlns="http://www.w3.org/2000/svg" width="20" height="20" viewBox="0 0 20 20">
  <path id="Path_37" data-name="Path 37" d="M18.75,5H17.5v7.5a1.25,1.25,0,0,1-1.25,1.25H8.535L6.25,16.25H12.5L16.25,20V16.25h2.5A1.25,1.25,0,0,0,20,15V6.25A1.25,1.25,0,0,0,18.75,5Z" fill="#d2dae2"/>
  <path id="Path_38" data-name="Path 38" d="M1.25,0h12.5A1.25,1.25,0,0,1,15,1.25V10a1.25,1.25,0,0,1-1.25,1.25H7.5L3.75,15V11.25H1.25A1.25,1.25,0,0,1,0,10V1.25A1.25,1.25,0,0,1,1.25,0Z" fill="#d2dae2"/>
</svg>
