<svg xmlns="http://www.w3.org/2000/svg" width="237.063" height="66.896" viewBox="0 0 237.063 66.896">
  <g id="graph-2" transform="translate(0.157 -0.255)">
    <path id="Path_25" data-name="Path 25" d="M.343,66.47.786,26.562a1.467,1.467,0,0,1,1.1-.206,1.1,1.1,0,0,1,.463.155,1.65,1.65,0,0,0,1.121.126.7.7,0,0,0,.384-.185l1.1-1.347A2.671,2.671,0,0,1,7,24.69a1.645,1.645,0,0,1,1.07.436l.463.639a2.873,2.873,0,0,0,2.268.5A2.818,2.818,0,0,0,11.769,26a2.933,2.933,0,0,1,1.9-.107c.319.094.516.239.54.4l.146.95c.028.18.42.317.877.306a.964.964,0,0,0,.76-.258l.175-.326c.143-.266.806-.436,1.481-.38a1.32,1.32,0,0,1,.955.367,1.9,1.9,0,0,0,1.555.375,1.3,1.3,0,0,0,.955-.382l2.6-4.539c.156-.272.842-.443,1.532-.381a2.048,2.048,0,0,1,.742.19,2.678,2.678,0,0,0,1.734.1.76.76,0,0,0,.472-.3l1.354-2.672c.251-.494,1.469-.815,2.722-.716a3.034,3.034,0,0,1,1.66.524l1.6,1.423a2.453,2.453,0,0,0,1.749.266,1.292,1.292,0,0,0,.711-.3,1.938,1.938,0,0,1,1.458-.275,1.181,1.181,0,0,1,.7.283l2.947,3.49c.558.66,2.367,1.017,4.04.8a2.894,2.894,0,0,0,2.118-.941l.98-1.874c.246-.471,1.414-.774,2.609-.677a2.841,2.841,0,0,1,1.583.51l1.435,1.321a3.058,3.058,0,0,0,2.2.347,2.03,2.03,0,0,0,.8-.283,3.321,3.321,0,0,1,2.251-.249,1.562,1.562,0,0,1,.715.318l3.722,3.526a3.856,3.856,0,0,0,2.79.453,1.961,1.961,0,0,0,1.233-.549l.65-.912a1.888,1.888,0,0,1,1.5-.331,1.384,1.384,0,0,1,.81.3,2.477,2.477,0,0,0,1.845.336,1.574,1.574,0,0,0,.837-.322l2.241-2.211a3.77,3.77,0,0,1,2.754-.466,2.773,2.773,0,0,1,1,.33,3.69,3.69,0,0,0,2.449.218,1.292,1.292,0,0,0,.774-.423l.97-1.532a2.748,2.748,0,0,1,2.233-.529,1.944,1.944,0,0,1,1.331.515l.883,1.29a2.764,2.764,0,0,0,2.209.5,2.8,2.8,0,0,0,.971-.26A4.418,4.418,0,0,1,95.9,23.07a1.6,1.6,0,0,1,.681.356l.521.535a3.978,3.978,0,0,0,2.933.514,2.694,2.694,0,0,0,1.215-.435l1.327-1.048a13.828,13.828,0,0,0,2.005-1.91l1.123-1.331a1.622,1.622,0,0,1,1.236-.244,1.367,1.367,0,0,1,.5.152,1.865,1.865,0,0,0,1.226.1.622.622,0,0,0,.367-.206l2.307-3.641c.354-.559,1.79-.9,3.207-.759a2.623,2.623,0,0,1,1.944.792l1.65,3.005c.2.36,1.1.588,2.007.51a2.781,2.781,0,0,0,.96-.235,6.4,6.4,0,0,1,4.117-.181,3.28,3.28,0,0,1,.4.153l1.948.9a7.081,7.081,0,0,0,4.535.143,1.838,1.838,0,0,0,1.062-.7l.867-1.625c.31-.581,1.755-.953,3.228-.831a3.068,3.068,0,0,1,2.051.746l.688.916c.445.591,2.018.927,3.515.752a2.621,2.621,0,0,0,1.97-.854c.3-.6,1.781-.995,3.308-.876a3.2,3.2,0,0,1,2.158.776l.075.1c.36.483,1.644.758,2.867.616.9-.1,1.548-.414,1.643-.782l.977-3.8c.12-.466,1.175-.806,2.357-.759a4.288,4.288,0,0,1,1.206.208A7.732,7.732,0,0,0,165.024,14a2.675,2.675,0,0,0,.369-.2l1.664-1.084a7.886,7.886,0,0,1,5.271-.51,3.88,3.88,0,0,1,1.423.6,4.71,4.71,0,0,0,3.251.411,1.84,1.84,0,0,0,1.26-.656l.935-1.809c.254-.492,1.472-.81,2.719-.709a3.083,3.083,0,0,1,1.624.5,4.106,4.106,0,0,0,2.89.411c.644-.12,1.1-.356,1.217-.633l3.809-8.932c.176-.412,1.165-.69,2.21-.621a2.283,2.283,0,0,1,1.51.518L197.03,3.6a12.348,12.348,0,0,0,1.26,1.337l.949.875a2.245,2.245,0,0,0,1.613.254c.386-.065.66-.2.728-.368l.844-2.046c.169-.412,1.153-.691,2.2-.624a2.534,2.534,0,0,1,1.454.45l.965.9a3.954,3.954,0,0,0,2.849.455,2.8,2.8,0,0,0,.989-.332,3.15,3.15,0,0,1,2.091-.186c.378.094.631.249.692.424l.69,1.975a7.345,7.345,0,0,0,.579,1.25l2.842,4.918c.283.49,1.518.8,2.758.684a2.878,2.878,0,0,0,1.614-.537,3.779,3.779,0,0,1,2.734-.444c.661.109,1.135.343,1.256.622l2.989,6.87c.15.345.98.576,1.853.517.717-.049,1.261-.281,1.327-.567l.643-2.794c.083-.356,2.461-.638,3.363-.605.529.019-.312,49.845-.045,50.026" fill="#fff" fill-rule="evenodd"/>
    <path id="Path_26" data-name="Path 26" d="M.343,66.47.786,26.562a1.467,1.467,0,0,1,1.1-.206,1.1,1.1,0,0,1,.463.155,1.65,1.65,0,0,0,1.121.126.7.7,0,0,0,.384-.185l1.1-1.347A2.671,2.671,0,0,1,7,24.69a1.645,1.645,0,0,1,1.07.436l.463.639a2.873,2.873,0,0,0,2.268.5A2.818,2.818,0,0,0,11.769,26a2.933,2.933,0,0,1,1.9-.107c.319.094.516.239.54.4l.146.95c.028.18.42.317.877.306a.964.964,0,0,0,.76-.258l.175-.326c.143-.266.806-.436,1.481-.38a1.32,1.32,0,0,1,.955.367,1.9,1.9,0,0,0,1.555.375,1.3,1.3,0,0,0,.955-.382l2.6-4.539c.156-.272.842-.443,1.532-.381a2.048,2.048,0,0,1,.742.19,2.678,2.678,0,0,0,1.734.1.76.76,0,0,0,.472-.3l1.354-2.672c.251-.494,1.469-.815,2.722-.716a3.034,3.034,0,0,1,1.66.524l1.6,1.423a2.453,2.453,0,0,0,1.749.266,1.292,1.292,0,0,0,.711-.3,1.938,1.938,0,0,1,1.458-.275,1.181,1.181,0,0,1,.7.283l2.947,3.49c.558.66,2.367,1.017,4.04.8a2.894,2.894,0,0,0,2.118-.941l.98-1.874c.246-.471,1.414-.774,2.609-.677a2.841,2.841,0,0,1,1.583.51l1.435,1.321a3.058,3.058,0,0,0,2.2.347,2.03,2.03,0,0,0,.8-.283,3.321,3.321,0,0,1,2.251-.249,1.562,1.562,0,0,1,.715.318l3.722,3.526a3.856,3.856,0,0,0,2.79.453,1.961,1.961,0,0,0,1.233-.549l.65-.912a1.888,1.888,0,0,1,1.5-.331,1.384,1.384,0,0,1,.81.3,2.477,2.477,0,0,0,1.845.336,1.574,1.574,0,0,0,.837-.322l2.241-2.211a3.77,3.77,0,0,1,2.754-.466,2.773,2.773,0,0,1,1,.33,3.69,3.69,0,0,0,2.449.218,1.292,1.292,0,0,0,.774-.423l.97-1.532a2.748,2.748,0,0,1,2.233-.529,1.944,1.944,0,0,1,1.331.515l.883,1.29a2.764,2.764,0,0,0,2.209.5,2.8,2.8,0,0,0,.971-.26A4.418,4.418,0,0,1,95.9,23.07a1.6,1.6,0,0,1,.681.356l.521.535a3.978,3.978,0,0,0,2.933.514,2.694,2.694,0,0,0,1.215-.435l1.327-1.048a13.828,13.828,0,0,0,2.005-1.91l1.123-1.331a1.622,1.622,0,0,1,1.236-.244,1.367,1.367,0,0,1,.5.152,1.865,1.865,0,0,0,1.226.1.622.622,0,0,0,.367-.206l2.307-3.641c.354-.559,1.79-.9,3.207-.759a2.623,2.623,0,0,1,1.944.792l1.65,3.005c.2.36,1.1.588,2.007.51a2.781,2.781,0,0,0,.96-.235,6.4,6.4,0,0,1,4.117-.181,3.28,3.28,0,0,1,.4.153l1.948.9a7.081,7.081,0,0,0,4.535.143,1.838,1.838,0,0,0,1.062-.7l.867-1.625c.31-.581,1.755-.953,3.228-.831a3.068,3.068,0,0,1,2.051.746l.688.916c.445.591,2.018.927,3.515.752a2.621,2.621,0,0,0,1.97-.854c.3-.6,1.781-.995,3.308-.876a3.2,3.2,0,0,1,2.158.776l.075.1c.36.483,1.644.758,2.867.616.9-.1,1.548-.414,1.643-.782l.977-3.8c.12-.466,1.175-.806,2.357-.759a4.288,4.288,0,0,1,1.206.208A7.732,7.732,0,0,0,165.024,14a2.675,2.675,0,0,0,.369-.2l1.664-1.084a7.886,7.886,0,0,1,5.271-.51,3.88,3.88,0,0,1,1.423.6,4.71,4.71,0,0,0,3.251.411,1.84,1.84,0,0,0,1.26-.656l.935-1.809c.254-.492,1.472-.81,2.719-.709a3.083,3.083,0,0,1,1.624.5,4.106,4.106,0,0,0,2.89.411c.644-.12,1.1-.356,1.217-.633l3.809-8.932c.176-.412,1.165-.69,2.21-.621a2.283,2.283,0,0,1,1.51.518L197.03,3.6a12.348,12.348,0,0,0,1.26,1.337l.949.875a2.245,2.245,0,0,0,1.613.254c.386-.065.66-.2.728-.368l.844-2.046c.169-.412,1.153-.691,2.2-.624a2.534,2.534,0,0,1,1.454.45l.965.9a3.954,3.954,0,0,0,2.849.455,2.8,2.8,0,0,0,.989-.332,3.15,3.15,0,0,1,2.091-.186c.378.094.631.249.692.424l.69,1.975a7.345,7.345,0,0,0,.579,1.25l2.842,4.918c.283.49,1.518.8,2.758.684a2.878,2.878,0,0,0,1.614-.537,3.779,3.779,0,0,1,2.734-.444c.661.109,1.135.343,1.256.622l2.989,6.87c.15.345.98.576,1.853.517.717-.049,1.261-.281,1.327-.567l.643-2.794c.083-.356,2.461-.638,3.363-.605.529.019-.312,49.845-.045,50.026l-.267-.181H.343Z" fill="none" stroke="#40c8b7" stroke-linecap="round" stroke-linejoin="round" stroke-width="1"/>
    <path id="Path_27" data-name="Path 27" d="M1,33.323l.283-.316a1.451,1.451,0,0,1,1.1-.207,1.087,1.087,0,0,1,.462.156,1.631,1.631,0,0,0,1.119.127.7.7,0,0,0,.384-.186L5.44,31.539a2.644,2.644,0,0,1,2.049-.42,1.633,1.633,0,0,1,1.068.44l.462.644a2.845,2.845,0,0,0,2.263.5,2.787,2.787,0,0,0,.962-.264,2.9,2.9,0,0,1,1.9-.108c.318.1.515.241.539.4l.146.958c.028.182.419.32.875.309a.957.957,0,0,0,.758-.261l.175-.329c.143-.268.8-.44,1.478-.383a1.31,1.31,0,0,1,.953.369,1.883,1.883,0,0,0,1.552.378,1.3,1.3,0,0,0,.953-.385l2.6-4.576c.156-.274.84-.447,1.529-.385a2.024,2.024,0,0,1,.74.191,2.647,2.647,0,0,0,1.731.1.757.757,0,0,0,.47-.3l1.351-2.694c.25-.5,1.466-.822,2.716-.722a3.008,3.008,0,0,1,1.657.529l1.6,1.435a2.427,2.427,0,0,0,1.745.268,1.284,1.284,0,0,0,.71-.306,1.918,1.918,0,0,1,1.455-.277,1.172,1.172,0,0,1,.7.285l2.941,3.517c.557.666,2.362,1.025,4.032.8a2.877,2.877,0,0,0,2.114-.949l.978-1.889c.246-.475,1.411-.781,2.6-.683a2.817,2.817,0,0,1,1.58.514l1.432,1.332a3.025,3.025,0,0,0,2.194.35,2.013,2.013,0,0,0,.8-.286,3.284,3.284,0,0,1,2.246-.251,1.552,1.552,0,0,1,.714.32l3.715,3.554a3.816,3.816,0,0,0,2.785.457,1.949,1.949,0,0,0,1.231-.554l.648-.919a1.87,1.87,0,0,1,1.493-.334,1.375,1.375,0,0,1,.808.3,2.452,2.452,0,0,0,1.841.339,1.561,1.561,0,0,0,.835-.324L77.8,30.007a3.731,3.731,0,0,1,2.748-.469,2.747,2.747,0,0,1,1,.332,3.649,3.649,0,0,0,2.444.22,1.286,1.286,0,0,0,.773-.426l.968-1.544a2.722,2.722,0,0,1,2.228-.533,1.93,1.93,0,0,1,1.328.519l.881,1.3a2.738,2.738,0,0,0,2.2.5,2.768,2.768,0,0,0,.969-.262,4.367,4.367,0,0,1,2.855-.163,1.59,1.59,0,0,1,.68.359l.52.539a3.937,3.937,0,0,0,2.927.519,2.673,2.673,0,0,0,1.212-.439l1.325-1.056a13.873,13.873,0,0,0,2-1.925l1.121-1.341a1.607,1.607,0,0,1,1.234-.246,1.371,1.371,0,0,1,.5.153,1.841,1.841,0,0,0,1.223.1.621.621,0,0,0,.366-.207l2.3-3.67c.353-.564,1.786-.907,3.2-.766a2.607,2.607,0,0,1,1.94.8l1.646,3.029c.2.362,1.094.593,2,.514a2.757,2.757,0,0,0,.959-.237,6.324,6.324,0,0,1,4.108-.182,3.391,3.391,0,0,1,.4.154l1.943.909a7,7,0,0,0,4.526.144,1.839,1.839,0,0,0,1.06-.711l.865-1.638c.309-.586,1.751-.961,3.221-.837a3.044,3.044,0,0,1,2.046.752l.687.923c.444.6,2.014.935,3.508.758a2.6,2.6,0,0,0,1.965-.861c.3-.607,1.778-1,3.3-.883a3.177,3.177,0,0,1,2.154.782l.075.1a3.622,3.622,0,0,0,2.861.621c.9-.106,1.545-.417,1.639-.788l.976-3.833c.12-.47,1.173-.812,2.352-.765a4.236,4.236,0,0,1,1.2.21,7.644,7.644,0,0,0,4.931-.123,2.651,2.651,0,0,0,.368-.2l1.661-1.092a7.8,7.8,0,0,1,5.26-.514,3.842,3.842,0,0,1,1.419.607,4.663,4.663,0,0,0,3.245.414,1.828,1.828,0,0,0,1.257-.662l.933-1.823c.254-.5,1.469-.816,2.713-.715a3.054,3.054,0,0,1,1.621.508,4.063,4.063,0,0,0,2.884.414c.643-.121,1.1-.359,1.215-.638l3.8-9c.175-.416,1.162-.7,2.205-.626a2.268,2.268,0,0,1,1.507.522l1.85,2.327a12.364,12.364,0,0,0,1.257,1.347l.948.882a2.216,2.216,0,0,0,1.608.257c.386-.066.66-.206.727-.37l.842-2.062c.17-.415,1.151-.7,2.191-.629a2.515,2.515,0,0,1,1.451.454l.963.9a3.911,3.911,0,0,0,2.843.458,2.76,2.76,0,0,0,.986-.334,3.116,3.116,0,0,1,2.087-.188c.377.095.63.251.691.428L214.4,13a7.422,7.422,0,0,0,.577,1.26l2.836,4.958c.283.493,1.515.8,2.753.69a2.854,2.854,0,0,0,1.61-.541,3.74,3.74,0,0,1,2.728-.448c.66.11,1.133.346,1.254.627l2.983,6.925c.149.347.977.581,1.849.521.715-.049,1.258-.283,1.324-.571l.642-2.816c.082-.359.878-.623,1.778-.591A2.562,2.562,0,0,1,236,23.33" fill="none" stroke="#a2b1c3" stroke-linecap="round" stroke-linejoin="round" stroke-width="1" opacity="0.16"/>
  </g>
</svg>
