<svg xmlns="http://www.w3.org/2000/svg" width="234.8" height="66.896" viewBox="0 0 234.8 66.896">
  <g id="graph-1" transform="translate(0.387 -0.265)">
    <path id="Path_22" data-name="Path 22" d="M233.648,66.48l-.437-39.908a1.432,1.432,0,0,0-1.086-.206,1.069,1.069,0,0,0-.457.155,1.611,1.611,0,0,1-1.107.126.686.686,0,0,1-.379-.185L229.1,25.116a2.612,2.612,0,0,0-2.028-.416,1.614,1.614,0,0,0-1.056.436l-.457.639a2.809,2.809,0,0,1-2.239.5,2.75,2.75,0,0,1-.951-.262,2.86,2.86,0,0,0-1.875-.107c-.315.094-.51.239-.533.4l-.145.95c-.027.18-.414.317-.865.306a.944.944,0,0,1-.75-.258l-.173-.326c-.142-.266-.8-.436-1.463-.38a1.293,1.293,0,0,0-.942.367,1.861,1.861,0,0,1-1.536.375,1.278,1.278,0,0,1-.942-.382l-2.571-4.539c-.154-.272-.831-.443-1.513-.381a2,2,0,0,0-.732.19,2.612,2.612,0,0,1-1.712.1.749.749,0,0,1-.466-.3l-1.337-2.672c-.247-.494-1.45-.815-2.687-.716a2.969,2.969,0,0,0-1.639.524L198.9,20.582a2.4,2.4,0,0,1-1.727.265,1.263,1.263,0,0,1-.7-.3,1.9,1.9,0,0,0-1.439-.275,1.16,1.16,0,0,0-.7.283l-2.91,3.49c-.55.66-2.336,1.017-3.988.8a2.842,2.842,0,0,1-2.091-.941l-.967-1.874c-.244-.471-1.4-.774-2.576-.677a2.783,2.783,0,0,0-1.563.51l-1.416,1.321a2.989,2.989,0,0,1-2.171.347,1.991,1.991,0,0,1-.789-.283,3.241,3.241,0,0,0-2.222-.249,1.538,1.538,0,0,0-.707.318l-3.674,3.526a3.767,3.767,0,0,1-2.755.453,1.928,1.928,0,0,1-1.218-.549l-.641-.912a1.846,1.846,0,0,0-1.477-.331,1.355,1.355,0,0,0-.8.3,2.42,2.42,0,0,1-1.821.336,1.544,1.544,0,0,1-.827-.322L157.518,23.6a3.684,3.684,0,0,0-2.719-.466,2.711,2.711,0,0,0-.991.33,3.6,3.6,0,0,1-2.418.218,1.271,1.271,0,0,1-.764-.422l-.958-1.532a2.69,2.69,0,0,0-2.205-.529,1.908,1.908,0,0,0-1.314.515L145.277,23a3.342,3.342,0,0,1-3.139.241,4.311,4.311,0,0,0-2.825-.161,1.581,1.581,0,0,0-.673.356l-.514.535a3.885,3.885,0,0,1-2.9.514,2.643,2.643,0,0,1-1.2-.435L132.721,23a13.729,13.729,0,0,1-1.979-1.91l-1.109-1.331a1.586,1.586,0,0,0-1.22-.244,1.345,1.345,0,0,0-.5.152,1.818,1.818,0,0,1-1.21.1.609.609,0,0,1-.362-.206l-2.277-3.641c-.35-.559-1.768-.9-3.167-.76a2.577,2.577,0,0,0-1.919.792l-1.629,3.005c-.194.36-1.082.588-1.981.51a2.72,2.72,0,0,1-.948-.235,6.242,6.242,0,0,0-4.065-.181,3.307,3.307,0,0,0-.4.153l-1.922.9a6.91,6.91,0,0,1-4.478.143,1.819,1.819,0,0,1-1.049-.7l-.855-1.625c-.306-.581-1.733-.953-3.187-.831a3.006,3.006,0,0,0-2.024.746l-.68.916c-.439.591-1.992.927-3.47.752a2.573,2.573,0,0,1-1.944-.854c-.3-.6-1.759-.995-3.266-.876a3.139,3.139,0,0,0-2.131.776l-.074.1a3.576,3.576,0,0,1-2.831.616c-.888-.1-1.529-.414-1.622-.782l-.965-3.8c-.118-.466-1.16-.806-2.327-.759a4.184,4.184,0,0,0-1.19.208,7.542,7.542,0,0,1-4.878-.122,2.64,2.64,0,0,1-.364-.2l-1.643-1.084a7.694,7.694,0,0,0-5.2-.51,3.8,3.8,0,0,0-1.4.6,4.6,4.6,0,0,1-3.21.411A1.808,1.808,0,0,1,58,12.571l-.923-1.808c-.251-.492-1.453-.81-2.684-.709a3.016,3.016,0,0,0-1.6.5,4.009,4.009,0,0,1-2.853.411c-.636-.12-1.085-.356-1.2-.633L44.975,1.4C44.8.991,43.824.713,42.793.782A2.239,2.239,0,0,0,41.3,1.3L39.472,3.608a12.231,12.231,0,0,1-1.243,1.337l-.938.875a2.19,2.19,0,0,1-1.592.255c-.381-.065-.652-.2-.719-.368L34.147,3.66c-.168-.412-1.138-.691-2.168-.624a2.483,2.483,0,0,0-1.435.45l-.952.9a3.861,3.861,0,0,1-2.812.455,2.733,2.733,0,0,1-.976-.332,3.074,3.074,0,0,0-2.065-.186c-.373.094-.623.249-.683.424L22.374,6.72A7.387,7.387,0,0,1,21.8,7.97L19,12.888c-.279.49-1.5.8-2.723.684a2.822,2.822,0,0,1-1.594-.537,3.689,3.689,0,0,0-2.7-.444c-.653.109-1.12.343-1.24.622l-2.951,6.87c-.148.345-.967.576-1.83.517-.707-.049-1.245-.281-1.31-.567L4.016,17.24c-.081-.356-2.429-.637-3.32-.605C.174,16.654,1,66.48.741,66.661" fill="#fff" fill-rule="evenodd"/>
    <path id="Path_23" data-name="Path 23" d="M233.648,66.48l-.437-39.908a1.433,1.433,0,0,0-1.086-.206,1.07,1.07,0,0,0-.457.155,1.611,1.611,0,0,1-1.107.126.686.686,0,0,1-.379-.185L229.1,25.116a2.612,2.612,0,0,0-2.028-.416,1.614,1.614,0,0,0-1.056.436l-.457.639a2.809,2.809,0,0,1-2.239.5,2.75,2.75,0,0,1-.951-.262,2.86,2.86,0,0,0-1.875-.107c-.315.094-.51.239-.533.4l-.145.95c-.027.18-.414.317-.865.306a.944.944,0,0,1-.75-.258l-.173-.326c-.142-.266-.8-.436-1.463-.38a1.293,1.293,0,0,0-.942.367,1.861,1.861,0,0,1-1.536.375,1.278,1.278,0,0,1-.942-.382l-2.571-4.539c-.154-.272-.831-.443-1.513-.381a2,2,0,0,0-.732.19,2.612,2.612,0,0,1-1.712.1.749.749,0,0,1-.466-.3l-1.337-2.672c-.247-.494-1.45-.815-2.687-.716a2.969,2.969,0,0,0-1.639.524L198.9,20.582a2.4,2.4,0,0,1-1.727.265,1.263,1.263,0,0,1-.7-.3,1.9,1.9,0,0,0-1.439-.275,1.16,1.16,0,0,0-.7.283l-2.91,3.49c-.55.66-2.336,1.017-3.988.8a2.842,2.842,0,0,1-2.091-.941l-.967-1.874c-.244-.471-1.4-.774-2.576-.677a2.783,2.783,0,0,0-1.563.51l-1.416,1.321a2.989,2.989,0,0,1-2.171.347,1.991,1.991,0,0,1-.789-.283,3.241,3.241,0,0,0-2.222-.249,1.538,1.538,0,0,0-.707.318l-3.674,3.526a3.767,3.767,0,0,1-2.755.453,1.928,1.928,0,0,1-1.218-.549l-.641-.912a1.846,1.846,0,0,0-1.477-.331,1.355,1.355,0,0,0-.8.3,2.42,2.42,0,0,1-1.821.336,1.544,1.544,0,0,1-.827-.322L157.518,23.6a3.684,3.684,0,0,0-2.719-.466,2.711,2.711,0,0,0-.991.33,3.6,3.6,0,0,1-2.418.218,1.271,1.271,0,0,1-.764-.422l-.958-1.532a2.69,2.69,0,0,0-2.205-.529,1.908,1.908,0,0,0-1.314.515L145.277,23a3.342,3.342,0,0,1-3.139.241,4.311,4.311,0,0,0-2.825-.161,1.581,1.581,0,0,0-.673.356l-.514.535a3.885,3.885,0,0,1-2.9.514,2.643,2.643,0,0,1-1.2-.435L132.721,23a13.729,13.729,0,0,1-1.979-1.91l-1.109-1.331a1.586,1.586,0,0,0-1.22-.244,1.345,1.345,0,0,0-.5.152,1.818,1.818,0,0,1-1.21.1.609.609,0,0,1-.362-.206l-2.277-3.641c-.35-.559-1.768-.9-3.167-.76a2.577,2.577,0,0,0-1.919.792l-1.629,3.005c-.194.36-1.082.588-1.981.51a2.72,2.72,0,0,1-.948-.235,6.242,6.242,0,0,0-4.065-.181,3.307,3.307,0,0,0-.4.153l-1.922.9a6.91,6.91,0,0,1-4.478.143,1.819,1.819,0,0,1-1.049-.7l-.855-1.625c-.306-.581-1.733-.953-3.187-.831a3.006,3.006,0,0,0-2.024.746l-.68.916c-.439.591-1.992.927-3.47.752a2.573,2.573,0,0,1-1.944-.854c-.3-.6-1.759-.995-3.266-.876a3.139,3.139,0,0,0-2.131.776l-.074.1a3.576,3.576,0,0,1-2.831.616c-.888-.1-1.529-.414-1.622-.782l-.965-3.8c-.118-.466-1.16-.806-2.327-.759a4.183,4.183,0,0,0-1.19.208,7.543,7.543,0,0,1-4.878-.122,2.64,2.64,0,0,1-.364-.2l-1.643-1.084a7.694,7.694,0,0,0-5.2-.51,3.8,3.8,0,0,0-1.4.6,4.6,4.6,0,0,1-3.21.411A1.808,1.808,0,0,1,58,12.571l-.923-1.808c-.251-.492-1.453-.81-2.684-.709a3.016,3.016,0,0,0-1.6.5,4.009,4.009,0,0,1-2.853.411c-.636-.12-1.085-.356-1.2-.633L44.975,1.4C44.8.991,43.824.713,42.793.782A2.239,2.239,0,0,0,41.3,1.3L39.472,3.608a12.231,12.231,0,0,1-1.243,1.337l-.938.875a2.19,2.19,0,0,1-1.592.255c-.381-.065-.652-.2-.719-.368L34.147,3.66c-.168-.412-1.138-.691-2.168-.624a2.483,2.483,0,0,0-1.435.45l-.952.9a3.861,3.861,0,0,1-2.812.455,2.733,2.733,0,0,1-.976-.332,3.074,3.074,0,0,0-2.065-.186c-.373.094-.623.249-.683.424L22.374,6.72A7.38,7.38,0,0,1,21.8,7.97L19,12.888c-.279.49-1.5.8-2.723.684a2.822,2.822,0,0,1-1.594-.537,3.689,3.689,0,0,0-2.7-.444c-.653.109-1.12.343-1.24.622l-2.951,6.87c-.148.345-.967.576-1.83.517-.707-.049-1.245-.281-1.31-.567L4.016,17.24c-.081-.356-2.429-.637-3.32-.605C.174,16.654,1,66.48.741,66.661L1,66.48H233.648Z" fill="none" stroke="#435274" stroke-linecap="round" stroke-linejoin="round" stroke-width="1"/>
    <path id="Path_24" data-name="Path 24" d="M233,32.348l-.28-.3a1.461,1.461,0,0,0-1.084-.2,1.1,1.1,0,0,0-.456.15,1.645,1.645,0,0,1-1.1.123.7.7,0,0,1-.379-.179l-1.08-1.307a2.663,2.663,0,0,0-2.023-.4,1.631,1.631,0,0,0-1.054.424l-.456.62a2.862,2.862,0,0,1-2.234.483,2.809,2.809,0,0,1-.95-.254,2.928,2.928,0,0,0-1.871-.1c-.314.091-.509.232-.532.384l-.144.922c-.027.175-.414.308-.864.3a.956.956,0,0,1-.748-.251l-.173-.317c-.141-.258-.794-.424-1.459-.369a1.309,1.309,0,0,0-.941.356,1.893,1.893,0,0,1-1.532.364,1.294,1.294,0,0,1-.941-.371l-2.565-4.406c-.154-.264-.83-.43-1.51-.37a2.043,2.043,0,0,0-.731.184,2.673,2.673,0,0,1-1.708.095.751.751,0,0,1-.465-.287l-1.334-2.594c-.247-.48-1.447-.791-2.681-.7a3.02,3.02,0,0,0-1.636.509l-1.579,1.382a2.448,2.448,0,0,1-1.723.258,1.281,1.281,0,0,1-.7-.3,1.932,1.932,0,0,0-1.436-.267,1.171,1.171,0,0,0-.693.274l-2.9,3.387c-.549.641-2.331.987-3.98.774a2.869,2.869,0,0,1-2.087-.913L184,27.628c-.243-.458-1.393-.752-2.57-.657a2.83,2.83,0,0,0-1.56.5l-1.413,1.283a3.052,3.052,0,0,1-2.166.337,2.023,2.023,0,0,1-.788-.275,3.314,3.314,0,0,0-2.217-.242,1.551,1.551,0,0,0-.705.308L168.911,32.3a3.848,3.848,0,0,1-2.749.44,1.943,1.943,0,0,1-1.215-.533l-.64-.885A1.883,1.883,0,0,0,162.833,31a1.378,1.378,0,0,0-.8.287,2.469,2.469,0,0,1-1.817.326,1.565,1.565,0,0,1-.825-.312l-2.208-2.146a3.758,3.758,0,0,0-2.712-.452,2.758,2.758,0,0,0-.99.32,3.684,3.684,0,0,1-2.412.212,1.276,1.276,0,0,1-.763-.41l-.956-1.487a2.736,2.736,0,0,0-2.2-.513,1.928,1.928,0,0,0-1.311.5l-.87,1.252a3.418,3.418,0,0,1-3.133.234,4.415,4.415,0,0,0-2.819-.157,1.58,1.58,0,0,0-.671.345l-.513.519a3.97,3.97,0,0,1-2.89.5,2.689,2.689,0,0,1-1.2-.423l-1.307-1.017a13.51,13.51,0,0,1-1.975-1.854l-1.107-1.292a1.616,1.616,0,0,0-1.218-.237,1.365,1.365,0,0,0-.5.147,1.862,1.862,0,0,1-1.208.094.613.613,0,0,1-.361-.2L123.8,21.7c-.349-.543-1.763-.873-3.16-.737a2.6,2.6,0,0,0-1.914.769L117.1,24.652c-.194.349-1.079.571-1.977.495a2.773,2.773,0,0,1-.946-.228,6.392,6.392,0,0,0-4.056-.175,3.32,3.32,0,0,0-.4.148l-1.918.876a7.076,7.076,0,0,1-4.468.139,1.817,1.817,0,0,1-1.047-.684l-.854-1.577c-.305-.564-1.729-.925-3.179-.806a3.047,3.047,0,0,0-2.02.724l-.679.889c-.438.573-1.988.9-3.463.73a2.6,2.6,0,0,1-1.94-.829c-.3-.585-1.755-.966-3.259-.851a3.182,3.182,0,0,0-2.126.753l-.074.1a3.645,3.645,0,0,1-2.825.6c-.886-.1-1.526-.4-1.619-.759L79.3,20.5c-.118-.453-1.158-.782-2.322-.736a4.279,4.279,0,0,0-1.188.2,7.727,7.727,0,0,1-4.868-.118,2.672,2.672,0,0,1-.363-.192L68.915,18.6a7.874,7.874,0,0,0-5.193-.5,3.844,3.844,0,0,0-1.4.584,4.7,4.7,0,0,1-3.2.4,1.816,1.816,0,0,1-1.241-.637L56.955,16.7c-.251-.478-1.45-.786-2.678-.688a3.068,3.068,0,0,0-1.6.489,4.1,4.1,0,0,1-2.847.4c-.635-.116-1.083-.346-1.2-.615l-3.753-8.67c-.173-.4-1.148-.67-2.177-.6a2.272,2.272,0,0,0-1.488.5L39.386,9.753a12,12,0,0,1-1.24,1.3l-.936.849a2.238,2.238,0,0,1-1.588.247c-.38-.063-.651-.2-.717-.357L34.073,9.8c-.167-.4-1.136-.671-2.163-.606a2.525,2.525,0,0,0-1.432.437l-.95.871a3.945,3.945,0,0,1-2.807.441,2.777,2.777,0,0,1-.974-.322,3.147,3.147,0,0,0-2.06-.181c-.372.091-.622.242-.682.412l-.68,1.917a7.073,7.073,0,0,1-.57,1.213l-2.8,4.774c-.279.475-1.5.772-2.717.664a2.865,2.865,0,0,1-1.59-.521,3.769,3.769,0,0,0-2.693-.431c-.651.105-1.118.333-1.238.6L7.772,25.746c-.148.335-.965.559-1.826.5C5.24,26.2,4.7,25.975,4.639,25.7l-.634-2.712c-.081-.346-.867-.6-1.756-.569A2.579,2.579,0,0,0,1,22.725" fill="none" stroke="#a2b1c3" stroke-linecap="round" stroke-linejoin="round" stroke-width="2" opacity="0.16"/>
  </g>
</svg>
