<svg xmlns="http://www.w3.org/2000/svg" width="33.283" height="23.076" viewBox="0 0 33.283 23.076">
  <g id="logo" transform="translate(7.591 -0.024)">
    <path id="Path_6" data-name="Path 6" d="M.645.554A.325.325,0,0,1,.9.024H7.049A.325.325,0,0,1,7.3.139l9.476,11.2a.324.324,0,0,1,0,.419L7.3,22.962a.325.325,0,0,1-.248.115H.9a.325.325,0,0,1-.252-.53L9.469,11.756a.324.324,0,0,0,0-.411Z" fill="#fff"/>
    <path id="Path_7" data-name="Path 7" d="M25.366.025a.325.325,0,0,1,.252.53l-7.754,9.482L14.3,5.66,18.966.14a.325.325,0,0,1,.248-.115ZM14.21,17.34l4.756,5.622a.325.325,0,0,0,.248.115h6.152a.325.325,0,0,0,.252-.53l-7.8-9.538Z" fill="#fff" fill-rule="evenodd"/>
    <path id="Path_8" data-name="Path 8" d="M-7.1.047a.487.487,0,0,0-.488.487V4.755a.487.487,0,0,0,.488.487H.751a.487.487,0,0,0,.364-.811L-2.647.21A.488.488,0,0,0-3.011.047Z" fill="#03c79f" fill-rule="evenodd"/>
    <path id="Path_9" data-name="Path 9" d="M-4.825,8.813a.487.487,0,0,0-.488.487v4.546a.487.487,0,0,0,.488.487H4.048a.488.488,0,0,0,.376-.177L6.3,11.883a.487.487,0,0,0,0-.619L4.425,8.991a.488.488,0,0,0-.376-.177Z" fill="#03c79f" fill-rule="evenodd"/>
    <path id="Path_10" data-name="Path 10" d="M-7.1,23.1a.487.487,0,0,1-.488-.487V18.392A.487.487,0,0,1-7.1,17.9H.6a.487.487,0,0,1,.367.808l-3.7,4.221A.488.488,0,0,1-3.1,23.1Z" fill="#03c79f" fill-rule="evenodd"/>
  </g>
</svg>
