<svg xmlns="http://www.w3.org/2000/svg" width="20" height="20" viewBox="0 0 20 20">
  <g id="messages" transform="translate(-894 -573)">
    <rect id="Rectangle_1" data-name="Rectangle 1" width="17.5" height="14" transform="translate(895.25 574)" fill="#b0b7c3"/>
    <g id="Group_1" data-name="Group 1" transform="translate(894 573)">
      <path id="Path_15" data-name="Path 15" d="M18.75,0H1.25A1.25,1.25,0,0,0,0,1.25V15a1.25,1.25,0,0,0,1.25,1.25H5.733l3.384,3.384a1.249,1.249,0,0,0,1.767,0l3.384-3.384H18.75A1.25,1.25,0,0,0,20,15V1.25A1.25,1.25,0,0,0,18.75,0ZM10,2.5A2.5,2.5,0,1,1,7.5,5,2.5,2.5,0,0,1,10,2.5Zm-5,10S6.25,10,10,10s5,2.5,5,2.5Z" fill="#b0b7c3"/>
      <path id="Path_16" data-name="Path 16" d="M8.9,10.253h1.7V10.1a1.75,1.75,0,0,1,1.029-1.7A2.439,2.439,0,0,0,13.006,6.19c0-1.566-1.262-2.479-3.038-2.479-1.624,0-2.949.85-2.989,2.64H8.8A1.113,1.113,0,0,1,9.959,5.232,1.025,1.025,0,0,1,11.05,6.257c0,.586-.425.975-.975,1.324C9.323,8.056,8.9,8.535,8.9,10.1Zm.881,2.864a1.069,1.069,0,1,0,0-2.139,1.069,1.069,0,1,0,0,2.139Z" fill="#fff"/>
    </g>
  </g>
</svg>
