<svg id="options" xmlns="http://www.w3.org/2000/svg" width="17.486" height="4" viewBox="0 0 17.486 4">
  <path id="Path_17" data-name="Path 17" d="M8.742,3A.984.984,0,0,0,9.71,2,.968.968,0,1,0,7.774,2,.984.984,0,0,0,8.742,3Z" fill="none" stroke="#c1c7d0" stroke-linecap="round" stroke-linejoin="round" stroke-width="2"/>
  <path id="Path_18" data-name="Path 18" d="M15.518,3a.984.984,0,0,0,.968-1A.968.968,0,1,0,14.55,2,.984.984,0,0,0,15.518,3Z" fill="none" stroke="#c1c7d0" stroke-linecap="round" stroke-linejoin="round" stroke-width="2"/>
  <path id="Path_19" data-name="Path 19" d="M1.968,3a.984.984,0,0,0,.968-1,.984.984,0,0,0-.968-1A.984.984,0,0,0,1,2,.984.984,0,0,0,1.968,3Z" fill="none" stroke="#c1c7d0" stroke-linecap="round" stroke-linejoin="round" stroke-width="2"/>
</svg>
