<svg xmlns="http://www.w3.org/2000/svg" width="20" height="20" viewBox="0 0 20 20">
  <path id="settings" d="M18.919,8.48a2.5,2.5,0,0,1-1.538-3.711,1.253,1.253,0,0,0-.118-1.645l-.387-.388a1.256,1.256,0,0,0-1.645-.117A2.5,2.5,0,0,1,11.52,1.081,1.255,1.255,0,0,0,10.274,0H9.726A1.256,1.256,0,0,0,8.48,1.081,2.5,2.5,0,0,1,4.769,2.619a1.256,1.256,0,0,0-1.646.116l-.388.388a1.256,1.256,0,0,0-.116,1.646A2.5,2.5,0,0,1,1.081,8.48,1.256,1.256,0,0,0,0,9.726v.548A1.256,1.256,0,0,0,1.081,11.52a2.5,2.5,0,0,1,1.538,3.711,1.253,1.253,0,0,0,.117,1.645l.388.387a1.255,1.255,0,0,0,1.645.118A2.5,2.5,0,0,1,8.48,18.919,1.255,1.255,0,0,0,9.726,20h.548a1.256,1.256,0,0,0,1.246-1.081,2.5,2.5,0,0,1,3.711-1.538,1.255,1.255,0,0,0,1.645-.118l.387-.387a1.256,1.256,0,0,0,.118-1.645,2.5,2.5,0,0,1,1.538-3.711A1.255,1.255,0,0,0,20,10.274V9.726A1.256,1.256,0,0,0,18.919,8.48ZM10,13.75A3.75,3.75,0,1,1,13.75,10,3.75,3.75,0,0,1,10,13.75Z" fill="#b0b7c3"/>
</svg>
