<svg xmlns="http://www.w3.org/2000/svg" width="16" height="16" viewBox="0 0 16 16">
  <g id="tip" transform="translate(-161 0.58)">
    <circle id="Ellipse_3" data-name="Ellipse 3" cx="7.5" cy="7.5" r="7.5" transform="translate(161.5 -0.08)" fill="none" stroke="#fff" stroke-width="1"/>
    <path id="Path_42" data-name="Path 42" d="M24.849,25.569a.5.5,0,0,1-.5-.5V23.477h1v1.592A.5.5,0,0,1,24.849,25.569Zm-.5-10.283v1.582h1V15.286a.5.5,0,1,0-1,0Zm-2.963,1.738a.093.093,0,0,1,.072-.152h1.761a.093.093,0,0,1,.071.033L26,20.112a.093.093,0,0,1,0,.12L23.29,23.438a.093.093,0,0,1-.071.033H21.458a.093.093,0,0,1-.072-.152l2.526-3.089a.093.093,0,0,0,0-.118Zm7.078-.152a.093.093,0,0,1,.072.152l-2.219,2.714L25.3,18.486l1.337-1.58a.093.093,0,0,1,.071-.033Zm-3.193,4.956,1.361,1.609a.093.093,0,0,0,.071.033h1.761a.093.093,0,0,0,.072-.152L26.3,20.589Z" transform="translate(144 -12.58)" fill="#fff" fill-rule="evenodd"/>
  </g>
</svg>
