<svg xmlns="http://www.w3.org/2000/svg" width="16.075" height="16" viewBox="0 0 16.075 16">
  <g id="xhub" transform="translate(0.032 -0.031)">
    <path id="Path_4" data-name="Path 4" d="M15.518,4.113,8.507.106a1.707,1.707,0,0,0-1,0L.494,4.113a.951.951,0,0,0,0,1.7L7.505,9.821a.91.91,0,0,0,1,0l7.011-4.006A.951.951,0,0,0,15.518,4.113Z" transform="translate(0 0)" fill="#596e8d"/>
    <path id="Path_5" data-name="Path 5" d="M10.011,13.854a2.826,2.826,0,0,1-1.5.4,2.826,2.826,0,0,1-1.5-.4L2.5,11.25v4.006c0,2.1,3.1,3,6.009,3s6.009-.9,6.009-3V11.25Z" transform="translate(-0.503 -2.23)" fill="#596e8d"/>
  </g>
</svg>
